<?xml version="1.0" standalone="no"?>
<!DOCTYPE svg PUBLIC "-//W3C//DTD SVG 20010904//EN"
 "http://www.w3.org/TR/2001/REC-SVG-20010904/DTD/svg10.dtd">
<svg version="1.0" xmlns="http://www.w3.org/2000/svg"
 width="1668.000000pt" height="1668.000000pt" viewBox="0 0 1668.000000 1668.000000"
 preserveAspectRatio="xMidYMid meet">

<g transform="translate(0.000000,1668.000000) scale(0.100000,-0.100000)"
fill="#000000" stroke="none">
<path d="M4645 12766 c-21 -110 74 -761 169 -1159 118 -492 437 -1112 711
-1382 128 -127 267 -206 450 -255 167 -45 467 -36 628 19 143 50 370 191 306
191 -6 0 -43 -20 -83 -44 -209 -130 -382 -175 -636 -163 -259 12 -451 93 -634
267 -271 258 -593 880 -712 1377 -89 372 -164 864 -164 1075 0 88 -3 108 -15
108 -8 0 -17 -14 -20 -34z"/>
<path d="M6650 12591 c-32 -61 10 -440 81 -728 95 -387 225 -681 371 -837 101
-109 289 -206 498 -259 71 -17 116 -21 265 -21 174 -1 182 0 255 28 80 30 235
110 245 126 16 27 -29 17 -93 -20 -39 -22 -108 -55 -154 -72 -194 -72 -531
-37 -763 79 -200 101 -275 175 -380 379 -153 298 -276 771 -301 1155 -8 127
-3 159 26 152 22 -6 26 7 8 25 -18 18 -46 14 -58 -7z"/>
<path d="M9982 12565 c-31 -39 -42 -111 -42 -269 0 -325 71 -812 154 -1054
111 -322 235 -531 436 -732 196 -196 369 -303 636 -394 149 -50 179 -57 179
-38 0 7 -61 33 -150 63 -194 64 -326 130 -449 223 -301 227 -486 490 -622 889
-119 348 -197 1135 -126 1278 25 50 14 73 -16 34z"/>
<path d="M8393 12074 c-16 -25 -18 -51 -18 -219 1 -216 14 -312 71 -494 42
-136 97 -256 152 -337 79 -117 271 -272 403 -325 39 -16 82 -23 154 -26 124
-5 270 15 270 37 0 8 -5 14 -10 13 -6 -1 -57 -7 -114 -13 -184 -22 -277 -3
-410 84 -163 106 -264 217 -336 371 -96 203 -142 404 -151 650 -7 181 1 235
34 250 26 12 24 29 -6 33 -14 2 -27 -6 -39 -24z"/>
<path d="M8676 9622 c-3 -5 -26 -109 -51 -230 -77 -373 -157 -625 -265 -828
-144 -273 -415 -678 -654 -979 -96 -121 -185 -240 -198 -265 -36 -71 -32 -146
14 -243 114 -238 320 -457 662 -705 93 -68 126 -84 126 -63 0 5 -51 46 -112
92 -339 247 -535 456 -643 680 -78 163 -76 167 195 509 80 102 173 223 207
270 163 228 421 654 485 802 89 203 165 465 224 771 20 104 32 147 42 147 19
0 11 44 -10 48 -9 2 -19 -1 -22 -6z"/>
<path d="M10184 8998 c-8 -13 51 -68 73 -68 25 0 12 25 -27 53 -27 19 -41 24
-46 15z"/>
<path d="M6314 8787 c-7 -20 30 -67 53 -67 21 0 15 17 -16 52 -26 29 -30 31
-37 15z"/>
<path d="M11277 7813 c-11 -10 -8 -43 3 -43 6 0 10 -5 10 -10 0 -37 -165 -400
-182 -400 -4 0 -16 9 -25 20 -10 11 -23 20 -30 20 -23 0 -14 -29 16 -51 l29
-21 -85 -141 c-91 -150 -113 -194 -113 -227 0 -33 27 -23 34 13 4 17 48 101
98 185 71 118 96 151 108 145 16 -7 176 -59 220 -71 21 -6 26 -16 37 -77 25
-147 50 -249 61 -253 18 -6 15 40 -13 171 -14 64 -25 124 -25 132 0 11 12 15
51 15 65 0 62 23 -4 30 -25 3 -48 8 -51 10 -2 3 -16 88 -30 190 -14 102 -30
201 -36 220 -6 19 -8 46 -5 60 4 19 -2 34 -23 58 -30 34 -35 36 -45 25z m52
-198 c13 -71 51 -349 48 -351 -5 -5 -153 37 -192 55 l-44 19 53 109 c29 59 66
141 81 181 32 81 37 80 54 -13z"/>
<path d="M5367 7668 c-46 -84 -67 -157 -67 -228 0 -30 -4 -40 -15 -40 -52 0
-134 83 -197 198 -28 50 -45 72 -57 70 -23 -4 -93 -144 -137 -273 -20 -60 -42
-116 -49 -123 -31 -34 -97 54 -216 288 -66 130 -99 179 -121 180 -16 0 -7 -27
18 -61 14 -19 62 -105 107 -193 89 -174 153 -256 199 -256 35 0 44 13 83 131
39 115 104 259 116 259 5 0 17 -17 28 -37 64 -126 165 -218 233 -211 31 3 33
6 35 43 6 91 27 163 69 241 40 74 45 94 23 94 -4 0 -28 -37 -52 -82z"/>
<path d="M5415 6338 c-3 -7 18 -38 46 -68 78 -83 155 -190 364 -507 328 -494
498 -717 715 -933 74 -74 172 -164 217 -200 86 -69 285 -181 442 -250 226 -99
703 -213 1081 -260 131 -16 549 -13 687 5 149 20 321 58 432 96 204 71 470
222 660 375 113 92 442 427 622 636 46 53 153 169 238 258 110 116 150 165
143 172 -13 13 -212 -190 -412 -417 -189 -216 -474 -509 -585 -602 -279 -234
-597 -391 -925 -457 -183 -37 -294 -46 -539 -46 -356 0 -676 50 -1111 175
-195 56 -332 112 -521 215 -143 77 -190 114 -352 270 -244 235 -392 423 -758
970 -293 439 -428 611 -444 568z"/>
</g>
</svg>
